<svg width="32" height="32" viewBox="0 0 32 32" fill="none" xmlns="http://www.w3.org/2000/svg">
<rect width="32" height="32" rx="8" fill="white"/>
<path d="M11.7378 27.5388C11.756 27.7288 11.8491 27.9316 11.9956 28.0544C12.3433 28.3479 12.8558 28.2006 13.2741 28.2487C14.8478 28.1622 16.5541 28.3575 18.1246 28.2487C18.5161 28.2209 18.8339 28.0096 18.8991 27.605C18.9944 27.0126 18.9772 26.2601 19.0136 25.6474C19.2286 22.0587 19.4148 18.4797 19.6074 14.8846C19.1773 14.8846 18.7462 14.8846 18.3161 14.8846C18.1118 16.2893 17.8293 17.6866 17.3854 19.04C16.7253 21.0532 15.6426 23.2649 13.764 24.4999C13.1328 24.9141 12.4011 25.2289 11.634 25.3325C11.6426 25.4851 11.6522 25.6378 11.6608 25.7893C11.6939 26.3615 11.6832 26.9742 11.7389 27.5399L11.7378 27.5388Z" fill="#B97632"/>
<path d="M23.985 19.5172C23.939 19.3218 23.9037 19.0891 23.633 19.055C23.3623 19.0208 22.8392 19.3154 22.6659 19.4062C22.4926 19.4969 22.0914 19.7381 21.8389 19.8513C21.5865 19.9644 21.3425 20.0712 21.105 20.1704C21.0655 20.1875 21.028 20.2025 20.9927 20.2174C21.089 18.6163 21.1821 17.0152 21.258 15.4119C21.2644 15.2667 21.2334 15.0511 21.257 14.9219C21.2623 14.891 21.2655 14.8728 21.2997 14.8611C21.3971 14.8291 21.6528 14.8707 21.7833 14.8547C21.8785 14.843 21.9652 14.8045 22.0486 14.7586C22.5771 14.4694 22.4295 13.9026 22.4434 13.4019C22.4584 12.8746 22.4947 12.3367 22.4712 11.8061C22.4551 11.4347 22.4573 11.1411 22.147 10.8935C21.8678 10.6704 21.5993 10.7142 21.2612 10.7088C20.9403 8.54091 19.4565 6.6836 17.3939 5.93C16.2342 5.50624 15.0371 5.46141 13.9309 5.72719C13.8378 5.28742 13.7586 4.91062 13.7062 4.64163C13.6549 4.34916 13.5907 4.05455 13.5126 3.75887C13.4334 3.46426 13.3189 3.1814 13.1649 2.91241C12.9745 2.5623 12.8172 2.336 12.4706 2.16522C12.2267 2.04353 12.0737 2.05314 11.8308 2.10758C11.5955 2.15988 11.4104 2.35735 11.3195 2.50359C11.1761 2.73522 11.1943 3.00954 11.2339 3.29668C11.2735 3.58382 11.3237 3.85387 11.3836 4.10899C11.4157 4.24562 11.481 4.52208 11.5783 4.93837C11.6757 5.35466 11.7838 5.79551 11.9025 6.2609C11.9186 6.32388 11.9464 6.43489 11.9838 6.58006C10.8584 7.33366 9.97791 8.47046 9.56817 9.87625C9.48793 10.1506 9.43765 10.4302 9.38416 10.7099C9.23118 10.7281 9.06215 10.6982 8.9113 10.7142C8.5818 10.7473 8.2309 11.06 8.20095 11.3952C8.11964 12.294 8.26193 13.3144 8.20416 14.226C8.24053 14.4939 8.56575 14.8216 8.83428 14.859C8.99368 14.8814 9.19801 14.843 9.36276 14.859C9.36918 14.8985 9.38416 14.9348 9.38844 14.9742C9.47403 15.8239 9.49435 16.7654 9.54249 17.6268C9.7265 20.8685 9.82706 24.1188 10.0592 27.3584C10.1566 28.7205 10.9054 29.8114 12.3668 29.8957C14.3064 30.0078 16.3519 29.8082 18.3032 29.8957C19.6437 29.7761 20.4739 28.8229 20.5851 27.5122C20.6718 26.496 20.6825 25.467 20.7402 24.4487C20.7852 23.6641 20.8312 22.8806 20.8793 22.0961C21.2505 21.9616 21.6175 21.8164 21.9801 21.6606C22.2572 21.5421 22.5322 21.4108 22.8039 21.2656C23.0756 21.1215 23.3142 20.9539 23.5207 20.7618C23.7143 20.591 23.8427 20.3903 23.9058 20.1608C23.9689 19.9313 24.0299 19.7125 23.9839 19.5161L23.985 19.5172ZM19.2853 20.8515C19.0938 20.8781 18.9044 20.8963 18.7183 20.9038C18.5311 20.9112 18.3513 20.891 18.178 20.8418C17.81 20.7308 17.4976 20.4725 17.2409 20.0658C16.9841 19.6592 16.6889 18.7935 16.4974 18.2822C16.3059 17.772 16.2042 17.1347 16.0876 16.5967C15.9699 16.0598 15.8779 15.6104 15.8116 15.2486C15.7859 15.1269 15.7624 15.0052 15.7378 14.8835C17.0269 14.8835 18.3171 14.8857 19.6062 14.8835C19.4993 16.8764 19.3944 18.8639 19.2864 20.8504L19.2853 20.8515ZM20.7927 12.3868V13.2109H15.4126C15.3623 12.9355 15.3131 12.6611 15.266 12.3868H20.7927ZM19.5806 10.7131H14.9804C14.8167 9.85277 14.5407 8.55906 14.2796 7.34967C16.6097 6.76473 19.0606 8.24097 19.5806 10.7131ZM12.4278 8.33063C12.646 9.1931 12.8589 10.0353 12.9103 10.2381C12.9584 10.4249 12.998 10.5829 13.0312 10.7131H11.067C11.2574 9.78019 11.7345 8.9508 12.4278 8.3317V8.33063ZM9.85381 13.2109V12.3868H13.3863C13.4366 12.643 13.4912 12.9184 13.5511 13.2109H9.85381ZM18.898 27.604C18.8328 28.0085 18.5161 28.2199 18.1235 28.2476C16.5541 28.3565 14.8466 28.1611 13.2729 28.2476C12.8546 28.1996 12.3433 28.3469 11.9945 28.0533C11.849 27.9306 11.7559 27.7278 11.7367 27.5378C11.6811 26.972 11.6928 26.3593 11.6586 25.7872C11.511 23.2745 11.359 20.7543 11.221 18.2427C11.159 17.123 11.113 16.0022 11.0402 14.8824C11.5216 14.8824 12.0041 14.8824 12.4856 14.8824C12.9541 14.8824 13.4227 14.8824 13.8913 14.8824C13.918 15.0116 13.9448 15.1418 13.9715 15.2742C14.0978 15.8901 14.2229 16.4793 14.347 17.0429C14.4701 17.6054 14.5824 18.1039 14.684 18.5373C14.7857 18.9707 14.867 19.2791 14.9279 19.4617C15.0831 19.8918 15.2692 20.3231 15.4885 20.7565C15.7068 21.1898 15.9967 21.5613 16.3572 21.8719C16.6749 22.1558 17.0355 22.3683 17.4367 22.507C17.8378 22.6469 18.1149 22.7365 18.668 22.6906C18.8841 22.6725 19.0392 22.6533 19.1869 22.6244C19.1302 23.631 19.0724 24.6376 19.0125 25.6442C18.9761 26.2579 18.9922 27.0105 18.898 27.6018V27.604Z" fill="#35281C"/>
</svg>
