<svg width="198" height="115" viewBox="0 0 198 115" fill="none" xmlns="http://www.w3.org/2000/svg">
<g clip-path="url(#clip0_3_16)">
<path d="M81.692 76.9501C80.6068 77.2219 79.4864 77.3929 78.3266 77.4674C77.1667 77.5419 76.0288 77.4586 74.9172 77.2175C74.3461 77.0685 73.7793 76.8625 73.2214 76.6082C72.6634 76.354 72.145 76.0427 71.6617 75.6833C71.0905 75.2318 70.5853 74.7145 70.1459 74.1271C69.7066 73.5397 69.3244 72.9303 68.9949 72.2991C68.3622 71.0366 67.9097 69.7128 67.6417 68.3319C67.3693 66.9511 67.2638 65.5527 67.3253 64.1412C67.3869 63.0277 67.545 61.9099 67.7998 60.7833C68.0547 59.6567 68.4545 58.5959 68.9949 57.6052C69.2365 57.123 69.5133 56.6671 69.8296 56.2287C70.1459 55.7948 70.515 55.3959 70.9368 55.032C71.7803 54.221 72.7688 53.5679 73.898 53.0725C75.0271 52.5772 76.1869 52.2747 77.3776 52.1695C78.5682 52.0643 79.7325 52.1607 80.8792 52.4632C82.0215 52.7657 83.0495 53.2917 83.9502 54.0413C84.8552 54.8523 85.5626 55.843 86.0722 57.0178C86.5555 58.1619 86.8015 59.3411 86.8191 60.5554C86.8323 61.774 86.6302 62.9094 86.2084 63.9571C85.7867 65.0091 85.1672 65.9385 84.3544 66.7538C83.5416 67.5648 82.5311 68.1347 81.3273 68.4678C80.5453 68.7089 79.6929 68.7703 78.7747 68.6476C77.8565 68.5292 77.0481 68.2267 76.3583 67.7445C76.4506 68.3451 76.578 68.9544 76.7405 69.5725C76.9075 70.1906 77.1843 70.7517 77.5753 71.2646C78.1772 72.0755 78.9812 72.6147 79.9917 72.8865C81.0022 73.1583 81.9731 73.0838 82.9045 72.6629C83.5064 72.4218 84.0732 72.0843 84.6004 71.6503C85.1276 71.2164 85.69 70.892 86.2963 70.6816C86.8103 70.5018 87.2585 70.5851 87.6495 70.9314C88.0405 71.2777 88.1767 71.7073 88.0581 72.2158C87.9351 72.7287 87.7198 73.2021 87.4034 73.6361C87.0871 74.0701 86.7181 74.4559 86.2963 74.7846C85.6329 75.3238 84.9036 75.7622 84.104 76.0909C83.3043 76.4197 82.5003 76.7047 81.6876 76.9458L81.692 76.9501ZM76.2704 64.6891C76.8723 65.0486 77.5138 65.259 78.1904 65.3204C78.867 65.3817 79.5084 65.3072 80.1103 65.0968C80.7122 64.8864 81.257 64.5576 81.7359 64.1061C82.2192 63.6546 82.5794 63.0979 82.8211 62.4403C83.2121 61.2699 83.1682 60.1126 82.6849 58.9685C82.5355 58.6091 82.3246 58.2627 82.0522 57.9296C81.7798 57.6008 81.4635 57.3159 81.1032 57.0748C80.743 56.8337 80.3651 56.654 79.9741 56.5356C79.5831 56.4172 79.2053 56.3997 78.845 56.4918C78.5111 56.5531 78.2035 56.7109 77.918 56.9652C77.6324 57.2194 77.3995 57.5131 77.2194 57.8463C76.947 58.2978 76.7449 58.78 76.6087 59.2885C76.4725 59.8014 76.3759 60.3099 76.3144 60.8228C76.1342 62.0853 76.1167 63.3784 76.2704 64.6979V64.6891Z" fill="#35281C"/>
<path d="M113.637 75.6438C112.67 76.183 111.611 76.4153 110.452 76.3408C109.292 76.2663 108.259 75.8981 107.359 75.2361C106.484 74.6356 105.821 73.8158 105.373 72.7813C104.92 71.7424 104.621 70.6991 104.468 69.647C104.077 70.55 103.624 71.4355 103.114 72.3079C102.6 73.1802 101.955 73.9298 101.173 74.5611C100.448 75.1616 99.5997 75.6219 98.62 75.9375C97.6402 76.2531 96.6824 76.3364 95.751 76.1874C94.9075 76.0383 94.1079 75.714 93.3566 75.2186C92.6053 74.7233 91.9727 74.1446 91.4586 73.4827C90.9446 72.8821 90.5492 72.2202 90.2636 71.5013C89.978 70.778 89.7584 70.0459 89.609 69.2919C89.2487 67.578 89.2004 65.8157 89.4728 63.9965C89.7452 62.1773 90.3295 60.5159 91.2346 59.0167C91.6563 58.2671 92.1616 57.5526 92.7503 56.8731C93.339 56.1981 94.0068 55.6326 94.7625 55.1811C95.606 54.7295 96.5111 54.4753 97.4733 54.4139C98.9187 54.3219 100.351 54.4884 101.766 54.9093C102.306 55.0583 102.842 55.2556 103.369 55.4967C103.896 55.7378 104.371 56.0359 104.793 56.3997C104.885 56.0096 105.004 55.6282 105.153 55.2512C105.302 54.8742 105.513 54.5367 105.786 54.2386C106.027 53.9668 106.326 53.7651 106.691 53.6293C107.051 53.4934 107.416 53.3969 107.776 53.3356C108.47 53.2742 109.182 53.3356 109.92 53.5153C110.658 53.695 111.282 53.9975 111.796 54.4183C112.187 54.7778 112.451 55.3213 112.587 56.0402C112.723 56.7592 112.789 57.5351 112.789 58.3636C112.789 59.1921 112.736 60.0074 112.631 60.8184C112.525 61.6294 112.455 62.3044 112.429 62.848C112.336 64.1412 112.24 65.4344 112.134 66.7231C112.029 68.0163 112.051 69.2919 112.2 70.5544C112.262 70.9139 112.336 71.2777 112.424 71.6372C112.516 71.9966 112.723 72.1501 113.057 72.0887C113.417 72.0273 113.804 71.9923 114.208 71.9747C114.617 71.9616 114.955 72.0712 115.223 72.3123C115.372 72.4613 115.464 72.6498 115.495 72.8778C115.526 73.1013 115.508 73.3205 115.451 73.5309C115.302 73.9824 115.069 74.3945 114.753 74.7715C114.436 75.1485 114.067 75.4422 113.646 75.6526L113.637 75.6438ZM97.9126 72.983C98.3344 73.2854 98.7474 73.2679 99.156 72.9391C99.5602 72.6104 99.916 72.2334 100.219 71.8125C101.335 70.1906 102.148 68.3626 102.658 66.333C103.172 64.3034 103.273 62.3001 102.974 60.3143C102.912 59.9855 102.838 59.6699 102.75 59.3674C102.658 59.0693 102.526 58.78 102.341 58.5126C101.981 57.9997 101.542 57.7016 101.032 57.6096C100.672 57.5789 100.316 57.649 99.9687 57.8112C99.6217 57.9778 99.3141 58.2101 99.0417 58.5082C98.7693 58.8107 98.5277 59.1482 98.3168 59.5208C98.1059 59.8978 97.939 60.2661 97.8203 60.6255C97.5787 61.4058 97.3546 62.1905 97.1438 62.9708C96.9329 63.751 96.7659 64.5489 96.6473 65.3598C96.4979 66.71 96.4979 68.0645 96.6473 69.4191C96.678 69.6295 96.722 69.9144 96.7835 70.2739C96.845 70.6333 96.9241 70.9972 97.0339 71.3566C97.1394 71.7161 97.2668 72.0492 97.4161 72.3473C97.5655 72.6498 97.7325 72.8602 97.9126 72.9786V72.983Z" fill="#35281C"/>
<path d="M123.351 76.7704C122.569 76.9194 121.778 76.972 120.978 76.9282C120.179 76.8844 119.419 76.7266 118.698 76.4548C118.456 76.3627 118.215 76.2575 117.973 76.1392C117.732 76.0208 117.534 75.8411 117.384 75.6C117.174 75.3019 117.068 74.8942 117.068 74.3813C117.037 74.1709 117.024 73.8158 117.024 73.3205V71.6284C117.024 70.9972 117.037 70.3309 117.068 69.6207C117.099 68.9149 117.121 68.2399 117.134 67.5911C117.147 66.9467 117.165 66.3724 117.178 65.8771C117.191 65.3817 117.2 65.0267 117.2 64.8163C117.231 64.036 117.231 63.2382 117.2 62.4272C117.169 61.6162 117.138 60.8184 117.108 60.0381C117.108 59.8277 117.099 59.4682 117.086 58.9554C117.068 58.4425 117.064 57.912 117.064 57.3553C117.064 56.7986 117.077 56.2726 117.108 55.7772C117.138 55.2819 117.182 54.9268 117.244 54.7164C117.362 54.3569 117.573 54.0501 117.877 53.7914C118.175 53.5372 118.509 53.3487 118.869 53.226C119.322 53.0769 119.81 52.9936 120.337 52.9761C120.864 52.9629 121.382 53.0068 121.897 53.112C122.411 53.2172 122.881 53.3969 123.32 53.6512C123.755 53.9054 124.093 54.2298 124.335 54.6199C124.664 55.1898 124.893 55.7991 125.011 56.4479C125.13 57.0967 125.192 57.7499 125.192 58.4074C125.675 57.4781 126.29 56.6364 127.046 55.8824C127.92 55.0101 128.944 54.4314 130.117 54.1465C131.29 53.8616 132.436 53.8966 133.552 54.2605C134.277 54.5016 134.945 54.8698 135.565 55.3652C136.18 55.8605 136.702 56.4085 137.124 57.009C137.757 57.9427 138.231 58.9554 138.548 60.0513C138.864 61.1472 139.053 62.2518 139.114 63.3653C139.176 64.299 139.167 65.2283 139.093 66.162C139.018 67.0957 139.009 68.0251 139.071 68.9588C139.101 69.2919 139.167 69.6952 139.273 70.1774C139.378 70.6596 139.598 70.9577 139.927 71.0805C140.02 71.1111 140.125 71.1111 140.244 71.0805C140.362 71.0498 140.468 71.0059 140.56 70.9446C140.771 70.8262 140.982 70.7035 141.193 70.5851C141.403 70.4667 141.628 70.4054 141.869 70.4054C142.168 70.4667 142.427 70.6158 142.638 70.8569C142.818 71.1287 142.915 71.4268 142.932 71.7599C142.946 72.0931 142.893 72.4218 142.774 72.7506C142.656 73.0838 142.48 73.4038 142.256 73.7194C142.032 74.035 141.795 74.298 141.557 74.5084C140.503 75.4991 139.268 76.1172 137.854 76.3583C137.159 76.4767 136.439 76.4855 135.683 76.3803C134.932 76.2751 134.238 76.0427 133.605 75.6833C133.183 75.4422 132.805 75.1265 132.476 74.7364C132.146 74.3463 131.887 73.9254 131.707 73.4739C131.435 72.7506 131.268 72.0098 131.211 71.2427C131.149 70.4755 131.118 69.704 131.118 68.9193C131.118 68.4371 131.149 67.7226 131.211 66.7757C131.272 65.8289 131.307 64.8601 131.325 63.8694C131.338 62.8787 131.303 61.9406 131.211 61.0507C131.118 60.1652 130.925 59.5121 130.622 59.0912C130.503 58.8808 130.292 58.7449 129.989 58.6836C129.598 58.5915 129.238 58.6222 128.904 58.7756C128.57 58.9247 128.263 59.1438 127.977 59.4288C127.691 59.7137 127.437 60.0513 127.208 60.4414C126.984 60.8315 126.808 61.2085 126.69 61.568C126.206 62.9181 125.96 64.3341 125.943 65.807C125.925 67.2799 125.952 68.7352 126.009 70.1818C126.009 70.3922 126.022 70.7298 126.053 71.1944C126.083 71.6591 126.105 72.1501 126.119 72.6586C126.132 73.1714 126.132 73.6493 126.119 74.1008C126.101 74.5523 126.053 74.8679 125.96 75.0476C125.78 75.5605 125.424 75.9507 124.897 76.2181C124.37 76.4898 123.852 76.6696 123.338 76.7573L123.351 76.7704Z" fill="#35281C"/>
<path d="M14.6258 104.598C14.7005 105.378 15.0827 106.211 15.6846 106.715C17.1125 107.92 19.217 107.316 20.9348 107.513C27.3976 107.158 34.4052 107.96 40.8548 107.513C42.4628 107.399 43.7676 106.531 44.0356 104.869C44.4266 102.437 44.3563 99.3461 44.5057 96.8299C45.3888 82.0921 46.1533 67.3938 46.9441 52.6298C45.1779 52.6298 43.4074 52.6298 41.6412 52.6298C40.802 58.3986 39.6422 64.1368 37.8189 69.6952C35.1081 77.9628 30.6619 87.0456 22.947 92.1175C20.3549 93.8183 17.3498 95.1115 14.1996 95.5367C14.2348 96.1636 14.2743 96.7904 14.3095 97.4129C14.4457 99.7625 14.4017 102.279 14.6302 104.602L14.6258 104.598Z" fill="#B97632"/>
<path d="M64.9221 71.6547C64.7331 70.8525 64.5882 69.8969 63.4766 69.7566C62.3651 69.6163 60.2167 70.8262 59.5049 71.1988C58.7932 71.5714 57.1456 72.5621 56.1088 73.0268C55.0719 73.4914 54.0702 73.9298 53.0949 74.3375C52.9323 74.4076 52.7785 74.469 52.6336 74.5304C53.029 67.9549 53.4112 61.3795 53.7231 54.7953C53.7495 54.1991 53.6221 53.3136 53.7187 52.7832C53.7407 52.6561 53.7539 52.5816 53.8945 52.5333C54.2943 52.4018 55.3443 52.5728 55.8803 52.507C56.2713 52.4588 56.6272 52.301 56.9699 52.1125C59.1403 50.9246 58.534 48.5968 58.5911 46.5409C58.6526 44.3754 58.802 42.1661 58.7053 39.9874C58.6394 38.4619 58.6482 37.2564 57.3741 36.2394C56.2274 35.3232 55.1246 35.503 53.7363 35.481C52.4183 26.5779 46.3246 18.9504 37.854 15.8556C33.0915 14.1153 28.1752 13.9311 23.6323 15.0227C23.2501 13.2166 22.925 11.6692 22.7097 10.5645C22.4988 9.36341 22.2352 8.15353 21.9145 6.93926C21.5894 5.72938 21.1193 4.56772 20.4866 3.46305C19.7046 2.02522 19.0587 1.09589 17.6353 0.394513C16.6336 -0.10522 16.0053 -0.0657678 15.008 0.157797C14.0414 0.372595 13.2813 1.18357 12.9079 1.78412C12.3192 2.73537 12.3939 3.86196 12.5564 5.04115C12.719 6.22035 12.9255 7.32941 13.1715 8.37709C13.3033 8.9382 13.5713 10.0736 13.9711 11.7832C14.3709 13.4928 14.8147 15.3032 15.3023 17.2145C15.3682 17.4731 15.4825 17.929 15.6362 18.5252C11.0143 21.62 7.39851 26.2886 5.71581 32.0618C5.3863 33.1884 5.17981 34.3369 4.96014 35.4854C4.33187 35.5599 3.63771 35.4372 3.01823 35.503C1.66504 35.6389 0.22399 36.9233 0.100973 38.2997C-0.23293 41.9907 0.3514 46.1815 0.114154 49.9251C0.263531 51.0254 1.59914 52.3711 2.7019 52.5246C3.35653 52.6166 4.19568 52.4588 4.87227 52.5246C4.89863 52.6868 4.96014 52.8358 4.97771 52.998C5.32919 56.4874 5.41266 60.3537 5.61037 63.8913C6.36605 77.2044 6.77903 90.5525 7.73241 103.857C8.13222 109.45 11.2076 113.93 17.2091 114.277C25.1744 114.737 33.5747 113.917 41.5884 114.277C47.0934 113.786 50.5027 109.871 50.9596 104.488C51.3155 100.315 51.3595 96.089 51.5967 91.9071C51.7812 88.6851 51.9701 85.4675 52.1679 82.2455C53.6924 81.6932 55.1993 81.097 56.6887 80.457C57.8266 79.9704 58.9557 79.4313 60.0717 78.8351C61.1876 78.2433 62.1674 77.5551 63.0153 76.766C63.8105 76.0646 64.3377 75.2405 64.5969 74.298C64.8562 73.3556 65.1066 72.4569 64.9177 71.6503L64.9221 71.6547ZM45.6216 77.1342C44.8352 77.2438 44.0575 77.3184 43.2931 77.349C42.5242 77.3797 41.7861 77.2964 41.0744 77.0948C39.563 76.6389 38.2801 75.5781 37.2257 73.9079C36.1713 72.2377 34.9587 68.6826 34.1722 66.5829C33.3858 64.4875 32.9684 61.8705 32.4895 59.6611C32.0063 57.4562 31.6284 55.6106 31.356 54.1246C31.2506 53.6249 31.1539 53.1251 31.0529 52.6254C36.347 52.6254 41.6455 52.6342 46.9396 52.6254C46.5003 60.8096 46.0697 68.9719 45.626 77.1299L45.6216 77.1342ZM51.812 42.3721V45.7563H29.7173C29.5108 44.6253 29.3087 43.4987 29.1154 42.3721H51.812ZM46.8342 35.4986H27.9423C27.2701 31.9654 26.1366 26.6524 25.0646 21.6858C34.6336 19.2836 44.699 25.3461 46.8342 35.4986ZM17.4595 25.7143C18.3558 29.2563 19.2301 32.715 19.441 33.5479C19.6387 34.315 19.8012 34.9638 19.9374 35.4986H11.871C12.6531 31.6673 14.6126 28.2612 17.4595 25.7187V25.7143ZM6.88887 45.7563V42.3721H21.3961C21.6026 43.4242 21.8266 44.5551 22.0727 45.7563H6.88887ZM44.0312 104.865C43.7632 106.526 42.4627 107.394 40.8503 107.508C34.4051 107.956 27.3931 107.153 20.9304 107.508C19.2125 107.311 17.1124 107.916 15.6802 106.711C15.0827 106.206 14.7004 105.374 14.6214 104.593C14.3929 102.27 14.4412 99.7537 14.3006 97.4041C13.6943 87.0851 13.0705 76.7353 12.5037 66.4207C12.2489 61.8222 12.06 57.2194 11.7612 52.621C13.7383 52.621 15.7197 52.621 17.6968 52.621C19.6211 52.621 21.5454 52.621 23.4698 52.621C23.5796 53.1514 23.6895 53.6862 23.7993 54.2298C24.3177 56.7592 24.8318 59.1789 25.3414 61.4935C25.8466 63.8036 26.308 65.8508 26.7253 67.6305C27.1427 69.4103 27.4766 70.6772 27.727 71.4268C28.3641 73.1934 29.1286 74.9643 30.0292 76.7441C30.9255 78.5239 32.1161 80.0494 33.5967 81.325C34.9016 82.491 36.3822 83.3634 38.0297 83.9332C39.6772 84.5075 40.8152 84.8757 43.0866 84.6872C43.9741 84.6127 44.6111 84.5338 45.2174 84.4154C44.9845 88.5492 44.7473 92.683 44.5013 96.8167C44.3519 99.3373 44.4178 102.428 44.0312 104.856V104.865Z" fill="#35281C"/>
<path d="M79.7149 112.97C78.6605 113.72 77.4787 114.264 76.1694 114.592C74.8602 114.921 73.5729 115.026 72.3076 114.908C71.1345 114.816 69.9878 114.553 68.8719 114.119C67.7559 113.685 66.7015 113.128 65.7086 112.449C64.7157 111.774 63.8194 110.985 63.0198 110.082C62.2202 109.179 61.5524 108.205 61.0076 107.149C60.3749 105.856 59.9136 104.484 59.628 103.024C59.3425 101.569 59.2151 100.1 59.2458 98.6272C59.3073 96.0408 59.8389 93.5772 60.8494 91.232C61.8599 88.8868 63.2658 86.8133 65.0759 85.0116C65.858 84.2314 66.7015 83.5256 67.6066 82.8944C68.5116 82.2631 69.4738 81.7678 70.4975 81.4083C71.4596 81.0795 72.5097 80.8954 73.6388 80.8691C74.7679 80.8384 75.8751 80.9612 76.9602 81.2286C78.0454 81.5004 79.0383 81.9256 79.9434 82.513C80.8485 83.1004 81.5558 83.8412 82.0654 84.7442C82.5487 85.5552 82.7904 86.3837 82.7904 87.2254V88.6895C82.7904 89.1849 82.6849 89.6451 82.474 90.066C82.3247 90.3991 82.1182 90.6753 81.8633 90.8988C81.6085 91.1224 81.3229 91.2802 81.0066 91.3723C80.6903 91.4643 80.3652 91.4775 80.0357 91.4161C79.7062 91.3547 79.4162 91.1926 79.1789 90.9208C79.0603 90.8024 78.9241 90.5613 78.7747 90.1975C78.6254 89.838 78.4672 89.4479 78.3002 89.027C78.1333 88.6062 77.9839 88.2073 77.8477 87.8303C77.7115 87.4533 77.5973 87.1903 77.5094 87.0413C77.36 86.7125 77.1623 86.3793 76.9207 86.0506C76.6791 85.7218 76.3935 85.4807 76.064 85.3273C75.7037 85.1782 75.3127 85.1168 74.8909 85.1475C74.4692 85.1782 74.0781 85.2659 73.7179 85.4193C73.3268 85.599 72.971 85.8533 72.6546 86.1865C72.3383 86.5196 72.0615 86.8615 71.8199 87.2254C71.4596 87.7646 71.1477 88.352 70.8929 88.9832C70.6381 89.6144 70.4184 90.2457 70.2382 90.8769C69.6671 92.9504 69.3024 95.0633 69.1531 97.2113C69.0037 99.3592 69.0476 101.516 69.2893 103.681C69.3815 104.554 69.5529 105.431 69.8077 106.32C70.0625 107.206 70.4623 108.013 71.0071 108.731C71.3059 109.152 71.7013 109.52 72.1802 109.836C72.6634 110.152 73.1819 110.393 73.7398 110.559C74.2978 110.726 74.8602 110.809 75.4357 110.809C76.0113 110.809 76.5209 110.691 76.9734 110.45C77.6983 110.121 78.3354 109.639 78.8934 109.008C79.4513 108.376 79.8951 107.701 80.2246 106.978C80.2861 106.86 80.374 106.632 80.497 106.303C80.6156 105.974 80.7474 105.619 80.8792 105.242C81.0154 104.865 81.1428 104.514 81.2658 104.181C81.3845 103.852 81.4899 103.642 81.5822 103.55C81.8546 103.129 82.2456 102.835 82.7552 102.669C83.2692 102.502 83.735 102.542 84.1567 102.783C84.4862 102.963 84.7454 103.243 84.9256 103.616C85.1057 103.993 85.2112 104.361 85.2419 104.72C85.2419 105.444 85.1057 106.132 84.8333 106.794C84.3808 108.056 83.6866 109.205 82.7552 110.244C81.8194 111.283 80.8133 112.19 79.7281 112.97H79.7149Z" fill="#35281C"/>
<path d="M103.892 113.645C103.049 114.005 102.161 114.246 101.225 114.369C100.294 114.487 99.3405 114.566 98.3783 114.592C97.3546 114.592 96.331 114.518 95.3073 114.369C94.2836 114.22 93.2907 113.979 92.3241 113.645C91.63 113.404 90.9666 113.089 90.3339 112.699C89.7012 112.308 89.174 111.826 88.7522 111.256C88.1196 110.476 87.6363 109.696 87.3068 108.911C86.7928 107.618 86.4764 106.268 86.3578 104.852C86.2392 103.44 86.2963 102.042 86.5379 100.661C86.7181 99.7011 86.9949 98.7368 87.3727 97.7767C87.7505 96.8167 88.2382 95.9268 88.8401 95.1159C89.3234 94.4539 89.8726 93.8534 90.4877 93.3142C91.1028 92.775 91.7618 92.3235 92.4515 91.9597C93.5938 91.3284 94.8328 90.8857 96.1552 90.6314C97.4821 90.3772 98.7913 90.2939 100.087 90.3816C100.751 90.4122 101.397 90.478 102.029 90.5832C102.662 90.6884 103.277 90.8594 103.883 91.1005C104.907 91.5213 105.794 92.1525 106.55 92.9942C107.244 93.8052 107.798 94.7214 108.22 95.7427C108.641 96.7641 108.945 97.803 109.125 98.8551C109.397 100.42 109.485 102.003 109.397 103.611C109.305 105.22 108.975 106.746 108.404 108.188C108.132 108.88 107.815 109.538 107.455 110.169C107.095 110.8 106.673 111.388 106.19 111.927C105.526 112.677 104.758 113.251 103.888 113.641L103.892 113.645ZM97.1569 108.416C97.4293 108.688 97.7676 108.92 98.1718 109.113C98.5804 109.31 99.0066 109.437 99.4591 109.494C99.9116 109.556 100.364 109.56 100.817 109.516C101.269 109.472 101.673 109.358 102.038 109.179C102.491 108.937 102.89 108.6 103.237 108.166C103.585 107.732 103.879 107.272 104.116 106.789C104.63 105.676 104.942 104.484 105.065 103.204C105.184 101.928 105.127 100.687 104.885 99.4863C104.762 98.8551 104.569 98.2239 104.296 97.5926C104.024 96.9614 103.686 96.4047 103.281 95.9225C102.873 95.4403 102.407 95.0677 101.88 94.7959C101.353 94.5241 100.773 94.4364 100.14 94.5241C99.96 94.5855 99.6788 94.6819 99.3053 94.8178C98.9275 94.9537 98.6815 95.0808 98.5585 95.1992C98.1982 95.5323 97.8643 95.8742 97.5655 96.2381C97.2624 96.5975 97.0076 96.9877 96.7967 97.4085C96.4364 98.1318 96.1772 98.8902 96.0278 99.6836C95.8784 100.481 95.773 101.284 95.7115 102.095C95.6807 102.695 95.6807 103.304 95.7115 103.923C95.7422 104.541 95.8301 105.146 95.9839 105.751C96.0761 106.233 96.2079 106.706 96.3881 107.171C96.5682 107.636 96.823 108.052 97.1569 108.411V108.416Z" fill="#35281C"/>
<path d="M121.29 113.602C120.868 113.961 120.376 114.193 119.805 114.299C119.234 114.404 118.698 114.439 118.188 114.413C117.71 114.382 117.231 114.347 116.752 114.299C116.273 114.255 115.807 114.154 115.359 114.005C114.819 113.825 114.397 113.51 114.098 113.058C113.856 112.729 113.681 112.344 113.558 111.91C113.439 111.476 113.347 111.046 113.29 110.625C113.14 109.485 113.057 108.319 113.039 107.131C113.022 105.943 113.017 104.764 113.017 103.594V101.656C113.017 101.025 113.031 100.381 113.061 99.7187H112.653C112.38 99.688 112.112 99.653 111.84 99.6047C111.567 99.5565 111.326 99.4469 111.115 99.2672C110.904 99.1181 110.746 98.9165 110.64 98.6579C110.535 98.4036 110.482 98.1231 110.482 97.825C110.482 97.5269 110.526 97.2376 110.618 96.9702C110.711 96.6984 110.86 96.488 111.071 96.3389C111.343 96.0978 111.673 95.9576 112.064 95.9093C112.455 95.8655 112.833 95.8743 113.193 95.9313C113.281 94.7301 113.408 93.5422 113.575 92.3718C113.742 91.2013 114.019 90.044 114.406 88.8999C114.647 88.2073 114.968 87.5629 115.372 86.9624C115.776 86.3618 116.264 85.8489 116.835 85.4281C117.556 84.8582 118.364 84.4199 119.265 84.1218C120.165 83.8237 121.079 83.6396 122.006 83.5826C123.061 83.5212 124.12 83.5738 125.192 83.7404C126.259 83.907 127.322 84.0648 128.377 84.2138C128.737 84.2752 129.115 84.319 129.506 84.3497C129.897 84.3804 130.275 84.4549 130.635 84.5733C130.877 84.6653 131.11 84.7749 131.334 84.9108C131.558 85.0467 131.747 85.2352 131.9 85.4763C132.23 85.9892 132.353 86.6029 132.261 87.3262C132.168 88.0495 131.87 88.6018 131.356 88.9964C131.026 89.2681 130.631 89.4479 130.183 89.5355C129.734 89.6232 129.295 89.6408 128.873 89.5794C128.179 89.518 127.511 89.3997 126.861 89.2199C126.211 89.0402 125.543 88.9218 124.849 88.8605C124.607 88.8298 124.366 88.8298 124.124 88.8605C123.882 88.8912 123.671 88.9788 123.491 89.1323C123.28 89.2813 123.113 89.4566 122.995 89.6495C122.876 89.8468 122.784 90.0616 122.722 90.3027C122.573 90.7235 122.472 91.1531 122.428 91.5871C122.384 92.0211 122.345 92.4507 122.314 92.8715C122.283 93.3844 122.261 93.9016 122.248 94.4277C122.23 94.9537 122.226 95.471 122.226 95.9839C122.437 95.9839 122.837 95.9926 123.421 96.0058C124.01 96.0233 124.634 96.0365 125.297 96.0496C125.96 96.0671 126.584 96.0803 127.173 96.0935C127.762 96.111 128.162 96.1329 128.372 96.1592C128.671 96.2206 128.974 96.2776 129.278 96.3389C129.576 96.4003 129.849 96.5362 130.09 96.7466C130.481 97.0798 130.683 97.5444 130.701 98.145C130.714 98.7455 130.512 99.2102 130.09 99.5434C129.761 99.8458 129.256 100.047 128.579 100.153C127.902 100.258 127.169 100.319 126.387 100.332C125.605 100.35 124.845 100.324 124.106 100.267C123.368 100.205 122.775 100.161 122.323 100.131C122.384 101.814 122.468 103.489 122.573 105.159C122.679 106.829 122.67 108.503 122.551 110.187C122.49 110.787 122.38 111.41 122.213 112.059C122.046 112.707 121.743 113.225 121.29 113.615V113.602Z" fill="#35281C"/>
<path d="M143.789 113.602C143.367 113.961 142.875 114.193 142.304 114.299C141.733 114.404 141.197 114.439 140.687 114.413C140.208 114.382 139.73 114.347 139.251 114.299C138.772 114.255 138.306 114.154 137.858 114.005C137.318 113.825 136.896 113.51 136.597 113.058C136.355 112.729 136.18 112.344 136.057 111.91C135.938 111.476 135.846 111.046 135.789 110.625C135.639 109.485 135.556 108.319 135.538 107.131C135.521 105.943 135.516 104.764 135.516 103.594V101.656C135.516 101.025 135.529 100.381 135.56 99.7187H135.152C134.879 99.688 134.611 99.653 134.339 99.6047C134.066 99.5565 133.825 99.4469 133.614 99.2672C133.403 99.1181 133.245 98.9165 133.139 98.6579C133.034 98.4036 132.981 98.1231 132.981 97.825C132.981 97.5269 133.025 97.2376 133.117 96.9702C133.21 96.6984 133.359 96.488 133.57 96.3389C133.842 96.0978 134.172 95.9576 134.563 95.9093C134.954 95.8655 135.332 95.8743 135.692 95.9313C135.78 94.7301 135.907 93.5422 136.074 92.3718C136.241 91.2013 136.518 90.044 136.905 88.8999C137.146 88.2073 137.467 87.5629 137.871 86.9624C138.275 86.3618 138.763 85.8489 139.334 85.4281C140.055 84.8582 140.863 84.4199 141.764 84.1218C142.664 83.8237 143.578 83.6396 144.505 83.5826C145.56 83.5212 146.619 83.5738 147.691 83.7404C148.758 83.907 149.821 84.0648 150.876 84.2138C151.236 84.2752 151.614 84.319 152.005 84.3497C152.396 84.3804 152.774 84.4549 153.134 84.5733C153.376 84.6653 153.608 84.7749 153.833 84.9108C154.057 85.0467 154.246 85.2352 154.399 85.4763C154.729 85.9892 154.852 86.6029 154.76 87.3262C154.667 88.0495 154.369 88.6018 153.855 88.9964C153.525 89.2681 153.13 89.4479 152.681 89.5355C152.233 89.6232 151.794 89.6408 151.372 89.5794C150.678 89.518 150.01 89.3997 149.36 89.2199C148.71 89.0402 148.042 88.9218 147.348 88.8605C147.106 88.8298 146.865 88.8298 146.623 88.8605C146.381 88.8912 146.17 88.9788 145.99 89.1323C145.779 89.2813 145.612 89.4566 145.494 89.6495C145.375 89.8468 145.283 90.0616 145.221 90.3027C145.072 90.7235 144.971 91.1531 144.927 91.5871C144.883 92.0211 144.844 92.4507 144.813 92.8715C144.782 93.3844 144.76 93.9016 144.747 94.4277C144.729 94.9537 144.725 95.471 144.725 95.9839C144.936 95.9839 145.336 95.9926 145.92 96.0058C146.509 96.0233 147.133 96.0365 147.796 96.0496C148.459 96.0671 149.083 96.0803 149.672 96.0935C150.261 96.111 150.66 96.1329 150.871 96.1592C151.17 96.2206 151.473 96.2776 151.776 96.3389C152.075 96.4003 152.348 96.5362 152.589 96.7466C152.98 97.0798 153.182 97.5444 153.2 98.145C153.213 98.7455 153.011 99.2102 152.589 99.5434C152.26 99.8458 151.754 100.047 151.078 100.153C150.401 100.258 149.668 100.319 148.886 100.332C148.103 100.35 147.343 100.324 146.605 100.267C145.867 100.205 145.274 100.161 144.822 100.131C144.883 101.814 144.967 103.489 145.072 105.159C145.177 106.829 145.169 108.503 145.05 110.187C144.989 110.787 144.879 111.41 144.712 112.059C144.545 112.707 144.242 113.225 143.789 113.615V113.602Z" fill="#35281C"/>
<path d="M169.583 114.456C168.498 114.728 167.378 114.899 166.218 114.974C165.058 115.048 163.92 114.965 162.808 114.724C162.237 114.575 161.67 114.369 161.112 114.115C160.555 113.86 160.036 113.549 159.553 113.19C158.982 112.738 158.476 112.221 158.037 111.633C157.598 111.046 157.215 110.437 156.886 109.805C156.253 108.543 155.801 107.219 155.533 105.838C155.26 104.457 155.155 103.059 155.216 101.648C155.278 100.534 155.436 99.4162 155.691 98.2896C155.946 97.1631 156.346 96.1022 156.886 95.1115C157.128 94.6293 157.404 94.1734 157.721 93.7351C158.037 93.3011 158.406 92.9022 158.828 92.5383C159.671 91.7274 160.66 91.0742 161.789 90.5789C162.918 90.0835 164.078 89.781 165.269 89.6758C166.459 89.5706 167.624 89.6671 168.77 89.9695C169.913 90.272 170.941 90.798 171.841 91.5476C172.746 92.3586 173.454 93.3493 173.963 94.5241C174.447 95.6682 174.693 96.8474 174.71 98.0617C174.723 99.2803 174.521 100.416 174.1 101.463C173.678 102.515 173.058 103.445 172.245 104.26C171.433 105.071 170.422 105.641 169.218 105.974C168.436 106.215 167.584 106.277 166.666 106.154C165.748 106.036 164.939 105.733 164.249 105.251C164.342 105.851 164.469 106.461 164.632 107.079C164.799 107.697 165.075 108.258 165.466 108.771C166.068 109.582 166.872 110.121 167.883 110.393C168.893 110.665 169.864 110.59 170.796 110.169C171.398 109.928 171.964 109.591 172.492 109.157C173.019 108.723 173.581 108.398 174.187 108.188C174.701 108.008 175.15 108.091 175.541 108.438C175.932 108.784 176.068 109.214 175.949 109.722C175.826 110.235 175.611 110.708 175.295 111.142C174.978 111.576 174.609 111.962 174.187 112.291C173.524 112.83 172.795 113.268 171.995 113.597C171.195 113.926 170.391 114.211 169.579 114.452L169.583 114.456ZM164.162 102.195C164.763 102.555 165.405 102.765 166.081 102.827C166.758 102.888 167.4 102.814 168.001 102.603C168.603 102.393 169.148 102.064 169.627 101.612C170.11 101.161 170.471 100.604 170.712 99.9467C171.103 98.7762 171.059 97.619 170.576 96.4748C170.427 96.1154 170.216 95.7691 169.943 95.4359C169.671 95.1071 169.355 94.8222 168.994 94.5811C168.634 94.34 168.256 94.1603 167.865 94.0419C167.474 93.9236 167.096 93.906 166.736 93.9981C166.402 94.0594 166.095 94.2173 165.809 94.4715C165.524 94.7258 165.291 95.0195 165.111 95.3526C164.838 95.8041 164.636 96.2863 164.5 96.7948C164.364 97.3077 164.267 97.8162 164.205 98.3291C164.025 99.5916 164.008 100.885 164.162 102.204V102.195Z" fill="#35281C"/>
<path d="M191.586 114.456C190.5 114.728 189.38 114.899 188.22 114.974C187.06 115.048 185.922 114.965 184.811 114.724C184.24 114.575 183.673 114.369 183.115 114.115C182.557 113.86 182.039 113.549 181.555 113.19C180.984 112.738 180.479 112.221 180.04 111.633C179.6 111.046 179.218 110.437 178.888 109.805C178.256 108.543 177.803 107.219 177.535 105.838C177.263 104.457 177.157 103.059 177.219 101.648C177.28 100.534 177.439 99.4162 177.693 98.2896C177.948 97.1631 178.348 96.1022 178.888 95.1115C179.13 94.6293 179.407 94.1734 179.723 93.7351C180.04 93.3011 180.409 92.9022 180.83 92.5383C181.674 91.7274 182.662 91.0742 183.792 90.5789C184.921 90.0835 186.081 89.781 187.271 89.6758C188.462 89.5706 189.626 89.6671 190.773 89.9695C191.915 90.272 192.943 90.798 193.844 91.5476C194.749 92.3586 195.456 93.3493 195.966 94.5241C196.449 95.6682 196.695 96.8474 196.713 98.0617C196.726 99.2803 196.524 100.416 196.102 101.463C195.68 102.515 195.061 103.445 194.248 104.26C193.435 105.071 192.425 105.641 191.221 105.974C190.439 106.215 189.586 106.277 188.668 106.154C187.75 106.036 186.942 105.733 186.252 105.251C186.344 105.851 186.472 106.461 186.634 107.079C186.801 107.697 187.078 108.258 187.469 108.771C188.071 109.582 188.875 110.121 189.885 110.393C190.896 110.665 191.867 110.59 192.798 110.169C193.4 109.928 193.967 109.591 194.494 109.157C195.021 108.723 195.584 108.398 196.19 108.188C196.704 108.008 197.152 108.091 197.543 108.438C197.934 108.784 198.07 109.214 197.952 109.722C197.829 110.235 197.613 110.708 197.297 111.142C196.981 111.576 196.612 111.962 196.19 112.291C195.526 112.83 194.797 113.268 193.998 113.597C193.198 113.926 192.394 114.211 191.581 114.452L191.586 114.456ZM186.164 102.195C186.766 102.555 187.407 102.765 188.084 102.827C188.761 102.888 189.402 102.814 190.004 102.603C190.606 102.393 191.151 102.064 191.629 101.612C192.113 101.161 192.473 100.604 192.715 99.9467C193.106 98.7762 193.062 97.619 192.578 96.4748C192.429 96.1154 192.218 95.7691 191.946 95.4359C191.673 95.1071 191.357 94.8222 190.997 94.5811C190.637 94.34 190.259 94.1603 189.868 94.0419C189.477 93.9236 189.099 93.906 188.739 93.9981C188.405 94.0594 188.097 94.2173 187.812 94.4715C187.526 94.7258 187.293 95.0195 187.113 95.3526C186.841 95.8041 186.638 96.2863 186.502 96.7948C186.366 97.3077 186.269 97.8162 186.208 98.3291C186.028 99.5916 186.01 100.885 186.164 102.204V102.195Z" fill="#35281C"/>
</g>
<defs>
<clipPath id="clip0_3_16">
<rect width="198" height="115" fill="white"/>
</clipPath>
</defs>
</svg>
