<svg width="200" height="60" viewBox="0 0 200 60" fill="none" xmlns="http://www.w3.org/2000/svg">
<g clip-path="url(#clip0_3_2)">
<path d="M46.6514 53.3057C45.8755 53.5033 45.0744 53.6275 44.2451 53.6817C43.4158 53.7359 42.6022 53.6753 41.8075 53.5001C41.3991 53.3918 40.9939 53.242 40.595 53.0572C40.196 52.8724 39.8253 52.6462 39.4798 52.3849C39.0714 52.0567 38.7102 51.6807 38.3961 51.2538C38.0819 50.8268 37.8086 50.3839 37.573 49.9251C37.1207 49.0075 36.7971 48.0452 36.6055 47.0416C36.4108 46.0379 36.3354 45.0215 36.3793 43.9955C36.4233 43.1862 36.5364 42.3738 36.7186 41.5549C36.9008 40.736 37.1867 39.965 37.573 39.2449C37.7458 38.8944 37.9437 38.563 38.1699 38.2444C38.3961 37.929 38.6599 37.639 38.9615 37.3745C39.5646 36.7851 40.2714 36.3103 41.0787 35.9503C41.886 35.5903 42.7153 35.3704 43.5666 35.2939C44.4179 35.2175 45.2504 35.2876 46.0702 35.5074C46.887 35.7273 47.622 36.1096 48.266 36.6545C48.9131 37.2439 49.4189 37.964 49.7832 38.8179C50.1288 39.6495 50.3047 40.5066 50.3173 41.3892C50.3267 42.275 50.1822 43.1002 49.8806 43.8617C49.5791 44.6264 49.1361 45.3019 48.555 45.8945C47.9739 46.484 47.2514 46.8982 46.3906 47.1404C45.8315 47.3156 45.2221 47.3602 44.5656 47.271C43.909 47.185 43.331 46.9651 42.8378 46.6146C42.9038 47.0511 42.9949 47.494 43.1111 47.9433C43.2305 48.3925 43.4284 48.8004 43.708 49.1732C44.1383 49.7626 44.7132 50.1545 45.4357 50.3521C46.1582 50.5496 46.8524 50.4955 47.5184 50.1896C47.9487 50.0143 48.354 49.769 48.7309 49.4536C49.1079 49.1381 49.51 48.9023 49.9435 48.7494C50.311 48.6188 50.6314 48.6793 50.911 48.931C51.1906 49.1827 51.2879 49.495 51.2031 49.8646C51.1152 50.2374 50.9612 50.5815 50.7351 50.8969C50.5089 51.2124 50.245 51.4928 49.9435 51.7317C49.4691 52.1236 48.9477 52.4423 48.3759 52.6812C47.8042 52.9202 47.2294 53.1273 46.6482 53.3025L46.6514 53.3057ZM42.775 44.3938C43.2054 44.6551 43.664 44.808 44.1478 44.8526C44.6315 44.8973 45.0902 44.8431 45.5205 44.6901C45.9509 44.5372 46.3404 44.2982 46.6828 43.9701C47.0283 43.6419 47.2859 43.2372 47.4587 42.7593C47.7383 41.9086 47.7069 41.0674 47.3613 40.2358C47.2545 39.9745 47.1037 39.7228 46.909 39.4807C46.7142 39.2417 46.488 39.0346 46.2304 38.8593C45.9729 38.6841 45.7027 38.5535 45.4231 38.4674C45.1436 38.3814 44.8734 38.3687 44.6158 38.4356C44.3771 38.4802 44.1572 38.5949 43.953 38.7797C43.7488 38.9645 43.5823 39.178 43.4535 39.4201C43.2588 39.7483 43.1143 40.0988 43.0169 40.4684C42.9195 40.8412 42.8504 41.2108 42.8064 41.5836C42.6776 42.5012 42.6651 43.4411 42.775 44.4002V44.3938Z" fill="#35281C"/>
<path d="M69.4886 52.3562C68.7975 52.7481 68.0404 52.917 67.2111 52.8628C66.3818 52.8087 65.6436 52.541 64.9997 52.0599C64.3746 51.6234 63.9002 51.0276 63.5798 50.2756C63.2563 49.5205 63.0426 48.7622 62.9327 47.9975C62.6531 48.6538 62.3296 49.2974 61.9652 49.9315C61.5976 50.5656 61.1359 51.1104 60.5767 51.5692C60.0584 52.0057 59.4521 52.3403 58.7516 52.5697C58.0511 52.7991 57.3663 52.8596 56.7004 52.7513C56.0972 52.643 55.5255 52.4072 54.9884 52.0472C54.4512 51.6871 53.9989 51.2665 53.6313 50.7854C53.2638 50.3489 52.9811 49.8678 52.7769 49.3452C52.5727 48.8195 52.4156 48.2874 52.3088 47.7394C52.0513 46.4936 52.0167 45.2127 52.2115 43.8904C52.4062 42.5681 52.824 41.3605 53.4711 40.2708C53.7727 39.726 54.1339 39.2066 54.5549 38.7128C54.9758 38.2221 55.4533 37.8111 55.9936 37.4829C56.5967 37.1547 57.2438 36.9699 57.9318 36.9253C58.9652 36.8584 59.9893 36.9795 61.0008 37.2853C61.3872 37.3937 61.7704 37.537 62.1474 37.7123C62.5243 37.8875 62.8636 38.1042 63.1652 38.3687C63.2311 38.0851 63.3159 37.8079 63.4227 37.5339C63.5295 37.2598 63.6803 37.0145 63.8751 36.7978C64.0479 36.6003 64.2615 36.4537 64.5222 36.355C64.7798 36.2562 65.0405 36.1861 65.2981 36.1415C65.7944 36.0969 66.3033 36.1415 66.831 36.2721C67.3588 36.4027 67.8048 36.6226 68.1724 36.9285C68.452 37.1897 68.6404 37.5848 68.7378 38.1074C68.8352 38.6299 68.8823 39.1939 68.8823 39.7961C68.8823 40.3983 68.8446 40.9909 68.7692 41.5804C68.6938 42.1698 68.6436 42.6605 68.6247 43.0556C68.5588 43.9955 68.4896 44.9355 68.4143 45.8722C68.3389 46.8122 68.3546 47.7394 68.4614 48.657C68.5054 48.9183 68.5588 49.1827 68.6216 49.444C68.6876 49.7053 68.8352 49.8168 69.0739 49.7722C69.3315 49.7276 69.608 49.7021 69.8969 49.6893C70.1891 49.6798 70.431 49.7594 70.6226 49.9347C70.7294 50.043 70.7954 50.18 70.8174 50.3457C70.8393 50.5082 70.8268 50.6675 70.7859 50.8205C70.6791 51.1486 70.5126 51.4481 70.2865 51.7222C70.0603 51.9962 69.7964 52.2097 69.4949 52.3626L69.4886 52.3562ZM58.249 50.4222C58.5506 50.642 58.8459 50.6293 59.138 50.3903C59.427 50.1513 59.6815 49.8773 59.8982 49.5715C60.6961 48.3925 61.2772 47.0639 61.6416 45.5887C62.0092 44.1134 62.0814 42.6573 61.8678 41.214C61.8238 40.975 61.7704 40.7456 61.7076 40.5257C61.6416 40.3091 61.5474 40.0988 61.4155 39.9044C61.1579 39.5316 60.8437 39.315 60.4793 39.2481C60.2218 39.2257 59.9673 39.2767 59.7192 39.3946C59.471 39.5157 59.2511 39.6846 59.0563 39.9012C58.8616 40.1211 58.6888 40.3664 58.538 40.6373C58.3872 40.9113 58.2679 41.1789 58.1831 41.4402C58.0103 42.0073 57.8501 42.5777 57.6993 43.1448C57.5485 43.712 57.4291 44.2919 57.3443 44.8813C57.2375 45.8627 57.2375 46.8472 57.3443 47.8318C57.3663 47.9847 57.3977 48.1918 57.4417 48.4531C57.4857 48.7144 57.5422 48.9788 57.6208 49.2401C57.6962 49.5014 57.7873 49.7435 57.8941 49.9602C58.0009 50.18 58.1202 50.333 58.249 50.419V50.4222Z" fill="#35281C"/>
<path d="M76.434 53.1751C75.8748 53.2834 75.3094 53.3216 74.7377 53.2898C74.166 53.2579 73.6225 53.1432 73.1074 52.9457C72.9346 52.8788 72.7618 52.8023 72.589 52.7163C72.4163 52.6302 72.2749 52.4996 72.1681 52.3244C72.0173 52.1077 71.9419 51.8114 71.9419 51.4386C71.9199 51.2856 71.9105 51.0276 71.9105 50.6675V49.4376C71.9105 48.9788 71.9199 48.4945 71.9419 47.9783C71.9639 47.4653 71.9796 46.9747 71.9891 46.5031C71.9985 46.0347 72.011 45.6173 72.0205 45.2573C72.0299 44.8972 72.0362 44.6391 72.0362 44.4862C72.0582 43.9191 72.0582 43.3392 72.0362 42.7497C72.0142 42.1603 71.9922 41.5804 71.9702 41.0132C71.9702 40.8603 71.9639 40.599 71.9545 40.2262C71.9419 39.8534 71.9388 39.4679 71.9388 39.0632C71.9388 38.6586 71.9482 38.2762 71.9702 37.9162C71.9922 37.5561 72.0236 37.2981 72.0676 37.1451C72.1524 36.8839 72.3032 36.6608 72.5199 36.4728C72.7335 36.288 72.9723 36.151 73.2299 36.0618C73.5534 35.9535 73.9021 35.8929 74.2791 35.8802C74.656 35.8706 75.0267 35.9025 75.3942 35.979C75.7617 36.0554 76.0979 36.1861 76.412 36.3709C76.723 36.5557 76.9649 36.7915 77.1376 37.075C77.3732 37.4892 77.5366 37.9321 77.6214 38.4037C77.7062 38.8753 77.7502 39.35 77.7502 39.8279C78.0957 39.1525 78.5355 38.5407 79.0758 37.9927C79.7009 37.3586 80.4329 36.938 81.2716 36.7309C82.1103 36.5238 82.9302 36.5493 83.7281 36.8138C84.2464 36.989 84.7239 37.2566 85.1668 37.6167C85.6066 37.9767 85.9804 38.375 86.282 38.8115C86.7343 39.4902 87.0736 40.2262 87.2997 41.0228C87.5259 41.8193 87.661 42.6223 87.705 43.4316C87.7489 44.1102 87.7427 44.7857 87.6892 45.4644C87.6358 46.1431 87.6296 46.8185 87.6735 47.4972C87.6955 47.7394 87.7427 48.0325 87.818 48.383C87.8934 48.7335 88.0505 48.9501 88.2861 49.0393C88.3521 49.0616 88.4275 49.0616 88.5123 49.0393C88.5971 49.017 88.6725 48.9852 88.7384 48.9406C88.8892 48.8545 89.04 48.7653 89.1908 48.6793C89.3416 48.5933 89.5018 48.5487 89.6746 48.5487C89.8882 48.5933 90.0735 48.7016 90.2243 48.8768C90.3531 49.0744 90.4222 49.2911 90.4347 49.5332C90.4442 49.7754 90.4065 50.0143 90.3217 50.2533C90.2368 50.4955 90.1112 50.728 89.951 50.9575C89.7908 51.1869 89.6212 51.378 89.4515 51.531C88.6976 52.2511 87.8149 52.7003 86.8034 52.8756C86.3071 52.9616 85.7919 52.968 85.2516 52.8915C84.7144 52.815 84.2181 52.6462 83.7658 52.3849C83.4642 52.2096 83.1941 51.9802 82.9585 51.6967C82.7229 51.4131 82.5375 51.1072 82.4087 50.779C82.214 50.2533 82.0946 49.7148 82.0538 49.1572C82.0098 48.5996 81.9878 48.0389 81.9878 47.4685C81.9878 47.118 82.0098 46.5987 82.0538 45.9105C82.0977 45.2222 82.1229 44.5181 82.1354 43.798C82.1449 43.0779 82.1197 42.396 82.0538 41.7492C81.9878 41.1056 81.8496 40.6309 81.6328 40.325C81.548 40.172 81.3972 40.0733 81.1805 40.0287C80.9009 39.9618 80.6433 39.9841 80.4046 40.0956C80.1659 40.2039 79.946 40.3632 79.7418 40.5703C79.5376 40.7774 79.3554 41.0228 79.192 41.3063C79.0318 41.5899 78.9062 41.8639 78.8214 42.1252C78.4758 43.1066 78.2999 44.1357 78.2874 45.2063C78.2748 46.2769 78.2936 47.3347 78.3345 48.3862C78.3345 48.5391 78.3439 48.7844 78.3659 49.1222C78.3879 49.4599 78.4036 49.8168 78.413 50.1864C78.4224 50.5592 78.4224 50.9065 78.413 51.2347C78.4004 51.5628 78.3659 51.7923 78.2999 51.9229C78.1711 52.2957 77.9167 52.5793 77.5397 52.7736C77.1628 52.9712 76.7921 53.1018 76.4246 53.1655L76.434 53.1751Z" fill="#35281C"/>
<path d="M115.427 52.2256C114.673 52.7704 113.828 53.1655 112.892 53.4045C111.956 53.6435 111.035 53.7199 110.131 53.6339C109.292 53.567 108.472 53.3758 107.674 53.0604C106.876 52.7449 106.122 52.3403 105.413 51.8464C104.703 51.3557 104.062 50.7822 103.49 50.1259C102.918 49.4695 102.441 48.7622 102.051 47.9943C101.599 47.0543 101.269 46.057 101.065 44.996C100.861 43.9382 100.77 42.8708 100.792 41.8002C100.836 39.9203 101.216 38.1297 101.938 36.425C102.661 34.7204 103.666 33.2133 104.96 31.9038C105.519 31.3366 106.122 30.8236 106.77 30.3648C107.417 29.906 108.105 29.546 108.837 29.2847C109.524 29.0457 110.275 28.9119 111.083 28.8928C111.89 28.8705 112.681 28.9597 113.457 29.1541C114.233 29.3516 114.943 29.6607 115.59 30.0876C116.237 30.5146 116.743 31.0531 117.108 31.7094C117.453 32.2989 117.626 32.9011 117.626 33.5128V34.577C117.626 34.9371 117.55 35.2716 117.4 35.5775C117.293 35.8197 117.145 36.0204 116.963 36.1829C116.781 36.3454 116.577 36.4601 116.351 36.527C116.124 36.5939 115.892 36.6035 115.656 36.5589C115.421 36.5143 115.213 36.3964 115.044 36.1988C114.959 36.1128 114.862 35.9376 114.755 35.6731C114.648 35.4118 114.535 35.1283 114.415 34.8224C114.296 34.5165 114.189 34.2265 114.092 33.9525C113.995 33.6785 113.913 33.4873 113.85 33.379C113.743 33.14 113.602 32.8979 113.429 32.6589C113.256 32.4199 113.052 32.2447 112.817 32.1332C112.559 32.0249 112.279 31.9802 111.978 32.0026C111.676 32.0249 111.397 32.0886 111.139 32.2001C110.86 32.3307 110.605 32.5155 110.379 32.7577C110.153 32.9998 109.955 33.2484 109.782 33.5128C109.524 33.9047 109.301 34.3317 109.119 34.7905C108.937 35.2493 108.78 35.7081 108.651 36.167C108.243 37.6741 107.982 39.2098 107.875 40.7711C107.768 42.3323 107.8 43.9 107.973 45.474C108.039 46.108 108.161 46.7453 108.343 47.3921C108.526 48.0357 108.811 48.622 109.201 49.1445C109.415 49.4504 109.697 49.718 110.04 49.9474C110.385 50.1768 110.756 50.3521 111.155 50.4732C111.554 50.5942 111.956 50.6548 112.367 50.6548C112.779 50.6548 113.143 50.5687 113.467 50.3935C113.985 50.1545 114.441 49.8041 114.84 49.3452C115.238 48.8864 115.556 48.3957 115.791 47.87C115.835 47.784 115.898 47.6183 115.986 47.3793C116.071 47.1404 116.165 46.8823 116.259 46.6083C116.357 46.3342 116.448 46.0793 116.536 45.8372C116.621 45.5982 116.696 45.4453 116.762 45.3784C116.957 45.0725 117.236 44.859 117.601 44.7379C117.968 44.6169 118.301 44.6455 118.603 44.8208C118.838 44.9514 119.024 45.1553 119.153 45.4262C119.281 45.7002 119.357 45.9678 119.379 46.2291C119.379 46.7548 119.281 47.2551 119.087 47.7362C118.763 48.6538 118.267 49.4886 117.601 50.2438C116.932 50.9989 116.212 51.6584 115.436 52.2256H115.427Z" fill="#35281C"/>
<path d="M132.71 52.7163C132.107 52.9775 131.473 53.1528 130.804 53.242C130.138 53.328 129.456 53.3854 128.768 53.4045C128.036 53.4045 127.304 53.3503 126.572 53.242C125.84 53.1337 125.13 52.9584 124.439 52.7163C123.943 52.541 123.469 52.3116 123.016 52.028C122.564 51.7445 122.187 51.394 121.885 50.9798C121.433 50.4126 121.088 49.8455 120.852 49.2751C120.484 48.3352 120.258 47.3538 120.173 46.3247C120.089 45.2987 120.129 44.2823 120.302 43.2786C120.431 42.5809 120.629 41.8799 120.899 41.1821C121.169 40.4843 121.518 39.8375 121.948 39.2481C122.294 38.7669 122.686 38.3304 123.126 37.9385C123.566 37.5466 124.037 37.2184 124.53 36.954C125.347 36.4951 126.233 36.1733 127.179 35.9885C128.127 35.8037 129.063 35.7432 129.99 35.8069C130.464 35.8292 130.926 35.877 131.378 35.9535C131.831 36.03 132.271 36.1542 132.704 36.3295C133.436 36.6353 134.071 37.0942 134.611 37.7059C135.107 38.2954 135.503 38.9613 135.805 39.7037C136.106 40.4461 136.323 41.2012 136.452 41.9659C136.646 43.1034 136.709 44.2536 136.646 45.423C136.58 46.5923 136.345 47.7011 135.936 48.7494C135.742 49.2528 135.516 49.7308 135.258 50.1896C135 50.6484 134.699 51.0754 134.353 51.4673C133.879 52.0121 133.329 52.4295 132.707 52.7131L132.71 52.7163ZM127.898 48.9151C128.093 49.1126 128.335 49.2815 128.624 49.4217C128.916 49.5651 129.22 49.6575 129.544 49.6989C129.867 49.7435 130.191 49.7467 130.515 49.7148C130.838 49.683 131.127 49.6001 131.388 49.4695C131.711 49.2943 131.997 49.0489 132.245 48.7335C132.494 48.418 132.704 48.0835 132.874 47.733C133.241 46.9237 133.464 46.057 133.552 45.1267C133.637 44.1995 133.596 43.2978 133.423 42.4247C133.335 41.9659 133.197 41.5071 133.002 41.0483C132.808 40.5895 132.566 40.1848 132.277 39.8343C131.985 39.4838 131.652 39.213 131.275 39.0155C130.898 38.8179 130.483 38.7542 130.031 38.8179C129.902 38.8625 129.701 38.9326 129.434 39.0314C129.164 39.1302 128.988 39.2226 128.9 39.3086C128.642 39.5507 128.404 39.7993 128.19 40.0637C127.973 40.325 127.791 40.6086 127.64 40.9145C127.383 41.4402 127.197 41.9914 127.091 42.5681C126.984 43.148 126.908 43.7311 126.864 44.3205C126.842 44.7571 126.842 45.1999 126.864 45.6492C126.886 46.0985 126.949 46.5382 127.059 46.9779C127.125 47.3283 127.219 47.6725 127.348 48.0102C127.477 48.3479 127.659 48.6506 127.898 48.9119V48.9151Z" fill="#35281C"/>
<path d="M145.153 52.6844C144.851 52.9457 144.5 53.1145 144.091 53.191C143.683 53.2675 143.3 53.293 142.935 53.2739C142.593 53.2515 142.25 53.2261 141.908 53.191C141.566 53.1592 141.233 53.0859 140.912 52.9775C140.526 52.8469 140.224 52.6175 140.011 52.2893C139.838 52.0503 139.712 51.77 139.624 51.4545C139.54 51.1391 139.474 50.8268 139.433 50.5209C139.326 49.6925 139.266 48.845 139.254 47.9815C139.241 47.118 139.238 46.261 139.238 45.4102V44.0019C139.238 43.5431 139.247 43.0747 139.269 42.5936H138.977C138.782 42.5713 138.591 42.5458 138.396 42.5107C138.201 42.4757 138.029 42.396 137.878 42.2654C137.727 42.1571 137.614 42.0105 137.538 41.8225C137.463 41.6377 137.425 41.4338 137.425 41.2171C137.425 41.0005 137.457 40.7902 137.523 40.5958C137.589 40.3983 137.696 40.2453 137.846 40.137C138.041 39.9618 138.277 39.8598 138.556 39.8248C138.836 39.7929 139.106 39.7993 139.364 39.8407C139.426 38.9677 139.518 38.1042 139.637 37.2535C139.756 36.4027 139.954 35.5616 140.231 34.73C140.403 34.2265 140.633 33.7582 140.922 33.3216C141.211 32.8851 141.559 32.5123 141.968 32.2065C142.483 31.7923 143.061 31.4736 143.705 31.257C144.349 31.0403 145.002 30.9065 145.665 30.8651C146.419 30.8205 147.176 30.8587 147.942 30.9798C148.706 31.1008 149.466 31.2155 150.22 31.3239C150.477 31.3685 150.748 31.4003 151.027 31.4227C151.307 31.445 151.577 31.4991 151.835 31.5851C152.007 31.6521 152.174 31.7317 152.334 31.8305C152.494 31.9293 152.629 32.0663 152.739 32.2415C152.975 32.6143 153.063 33.0604 152.997 33.5861C152.931 34.1118 152.717 34.5133 152.35 34.8001C152.114 34.9976 151.831 35.1282 151.511 35.192C151.191 35.2557 150.876 35.2684 150.575 35.2238C150.079 35.1792 149.601 35.0932 149.136 34.9626C148.671 34.8319 148.194 34.7459 147.697 34.7013C147.525 34.679 147.352 34.679 147.179 34.7013C147.006 34.7236 146.856 34.7873 146.727 34.8988C146.576 35.0072 146.457 35.1346 146.372 35.2748C146.287 35.4182 146.221 35.5743 146.177 35.7496C146.07 36.0554 145.998 36.3677 145.967 36.6831C145.935 36.9986 145.907 37.3108 145.885 37.6167C145.863 37.9895 145.847 38.3655 145.838 38.7478C145.825 39.1302 145.822 39.5061 145.822 39.8789C145.973 39.8789 146.259 39.8853 146.677 39.8949C147.097 39.9076 147.544 39.9172 148.018 39.9267C148.492 39.9395 148.938 39.949 149.359 39.9586C149.78 39.9713 150.066 39.9873 150.217 40.0064C150.43 40.051 150.647 40.0924 150.864 40.137C151.077 40.1816 151.272 40.2804 151.445 40.4333C151.725 40.6755 151.869 41.0132 151.882 41.4497C151.891 41.8862 151.747 42.224 151.445 42.4661C151.209 42.686 150.848 42.8326 150.364 42.909C149.881 42.9855 149.356 43.0301 148.797 43.0397C148.238 43.0524 147.694 43.0333 147.167 42.9919C146.639 42.9473 146.215 42.9154 145.891 42.8931C145.935 44.1166 145.995 45.3338 146.07 46.5477C146.146 47.7617 146.139 48.9788 146.055 50.2023C146.011 50.6388 145.932 51.0913 145.813 51.5628C145.693 52.0344 145.477 52.4104 145.153 52.694V52.6844Z" fill="#35281C"/>
<path d="M161.24 52.6844C160.938 52.9457 160.586 53.1145 160.178 53.191C159.769 53.2675 159.386 53.293 159.022 53.2739C158.679 53.2515 158.337 53.2261 157.995 53.191C157.652 53.1592 157.319 53.0859 156.999 52.9775C156.612 52.8469 156.311 52.6175 156.097 52.2893C155.924 52.0503 155.799 51.77 155.711 51.4545C155.626 51.1391 155.56 50.8268 155.519 50.5209C155.412 49.6925 155.353 48.845 155.34 47.9815C155.328 47.118 155.324 46.261 155.324 45.4102V44.0019C155.324 43.5431 155.334 43.0747 155.356 42.5936H155.064C154.869 42.5713 154.677 42.5458 154.483 42.5107C154.288 42.4757 154.115 42.396 153.964 42.2654C153.814 42.1571 153.7 42.0105 153.625 41.8225C153.55 41.6377 153.512 41.4338 153.512 41.2171C153.512 41.0005 153.543 40.7902 153.609 40.5958C153.675 40.3983 153.782 40.2453 153.933 40.137C154.128 39.9618 154.363 39.8598 154.643 39.8248C154.922 39.7929 155.193 39.7993 155.45 39.8407C155.513 38.9677 155.604 38.1042 155.723 37.2535C155.843 36.4027 156.041 35.5616 156.317 34.73C156.49 34.2265 156.719 33.7582 157.008 33.3216C157.297 32.8851 157.646 32.5123 158.054 32.2065C158.569 31.7923 159.147 31.4736 159.791 31.257C160.435 31.0403 161.089 30.9065 161.752 30.8651C162.505 30.8205 163.263 30.8587 164.029 30.9798C164.792 31.1008 165.553 31.2155 166.306 31.3239C166.564 31.3685 166.834 31.4003 167.114 31.4227C167.393 31.445 167.663 31.4991 167.921 31.5851C168.094 31.6521 168.26 31.7317 168.421 31.8305C168.581 31.9293 168.716 32.0663 168.826 32.2415C169.061 32.6143 169.149 33.0604 169.083 33.5861C169.017 34.1118 168.804 34.5133 168.436 34.8001C168.201 34.9976 167.918 35.1282 167.598 35.192C167.277 35.2557 166.963 35.2684 166.661 35.2238C166.165 35.1792 165.688 35.0932 165.223 34.9626C164.758 34.8319 164.28 34.7459 163.784 34.7013C163.611 34.679 163.438 34.679 163.266 34.7013C163.093 34.7236 162.942 34.7873 162.813 34.8988C162.663 35.0072 162.543 35.1346 162.458 35.2748C162.374 35.4182 162.308 35.5743 162.264 35.7496C162.157 36.0554 162.085 36.3677 162.053 36.6831C162.022 36.9986 161.993 37.3108 161.971 37.6167C161.949 37.9895 161.934 38.3655 161.924 38.7478C161.912 39.1302 161.909 39.5061 161.909 39.8789C162.059 39.8789 162.345 39.8853 162.763 39.8949C163.184 39.9076 163.63 39.9172 164.104 39.9267C164.579 39.9395 165.025 39.949 165.446 39.9586C165.867 39.9713 166.153 39.9873 166.303 40.0064C166.517 40.051 166.734 40.0924 166.95 40.137C167.164 40.1816 167.359 40.2804 167.532 40.4333C167.811 40.6755 167.956 41.0132 167.968 41.4497C167.978 41.8862 167.833 42.224 167.532 42.4661C167.296 42.686 166.935 42.8326 166.451 42.909C165.967 42.9855 165.443 43.0301 164.883 43.0397C164.324 43.0524 163.781 43.0333 163.253 42.9919C162.725 42.9473 162.301 42.9154 161.978 42.8931C162.022 44.1166 162.081 45.3338 162.157 46.5477C162.232 47.7617 162.226 48.9788 162.141 50.2023C162.097 50.6388 162.019 51.0913 161.899 51.5628C161.78 52.0344 161.563 52.4104 161.24 52.694V52.6844Z" fill="#35281C"/>
<path d="M179.682 53.3057C178.906 53.5033 178.105 53.6275 177.276 53.6817C176.447 53.7359 175.633 53.6753 174.838 53.5001C174.43 53.3918 174.025 53.242 173.626 53.0572C173.227 52.8724 172.856 52.6462 172.511 52.3849C172.102 52.0567 171.741 51.6807 171.427 51.2538C171.113 50.8268 170.839 50.3839 170.604 49.9251C170.151 49.0075 169.828 48.0452 169.636 47.0416C169.442 46.0379 169.366 45.0215 169.41 43.9955C169.454 43.1862 169.567 42.3738 169.749 41.5549C169.932 40.736 170.217 39.965 170.604 39.2449C170.777 38.8944 170.974 38.563 171.201 38.2444C171.427 37.929 171.691 37.639 171.992 37.3745C172.595 36.7851 173.302 36.3103 174.109 35.9503C174.917 35.5903 175.746 35.3704 176.597 35.2939C177.449 35.2175 178.281 35.2876 179.101 35.5074C179.918 35.7273 180.653 36.1096 181.297 36.6545C181.944 37.2439 182.45 37.964 182.814 38.8179C183.16 39.6495 183.335 40.5066 183.348 41.3892C183.357 42.275 183.213 43.1002 182.911 43.8617C182.61 44.6264 182.167 45.3019 181.586 45.8945C181.005 46.484 180.282 46.8982 179.421 47.1404C178.862 47.3156 178.253 47.3602 177.596 47.271C176.94 47.185 176.362 46.9651 175.869 46.6146C175.935 47.0511 176.026 47.494 176.142 47.9433C176.261 48.3925 176.459 48.8004 176.739 49.1732C177.169 49.7626 177.744 50.1545 178.466 50.3521C179.189 50.5496 179.883 50.4955 180.549 50.1896C180.979 50.0143 181.385 49.769 181.762 49.4536C182.139 49.1381 182.541 48.9023 182.974 48.7494C183.342 48.6188 183.662 48.6793 183.942 48.931C184.221 49.1827 184.319 49.495 184.234 49.8646C184.146 50.2374 183.992 50.5815 183.766 50.8969C183.54 51.2124 183.276 51.4928 182.974 51.7317C182.5 52.1236 181.978 52.4423 181.407 52.6812C180.835 52.9202 180.26 53.1273 179.679 53.3025L179.682 53.3057ZM175.806 44.3938C176.236 44.6551 176.695 44.808 177.179 44.8526C177.662 44.8973 178.121 44.8431 178.551 44.6901C178.982 44.5372 179.371 44.2982 179.714 43.9701C180.059 43.6419 180.317 43.2372 180.489 42.7593C180.769 41.9086 180.738 41.0674 180.392 40.2358C180.285 39.9745 180.134 39.7228 179.94 39.4807C179.745 39.2417 179.519 39.0346 179.261 38.8593C179.004 38.6841 178.733 38.5535 178.454 38.4674C178.174 38.3814 177.904 38.3687 177.647 38.4356C177.408 38.4802 177.188 38.5949 176.984 38.7797C176.78 38.9645 176.613 39.178 176.484 39.4201C176.29 39.7483 176.145 40.0988 176.048 40.4684C175.95 40.8412 175.881 41.2108 175.837 41.5836C175.708 42.5012 175.696 43.4411 175.806 44.4002V44.3938Z" fill="#35281C"/>
<path d="M195.414 53.3057C194.638 53.5033 193.837 53.6275 193.007 53.6817C192.178 53.7359 191.365 53.6753 190.57 53.5001C190.161 53.3918 189.756 53.242 189.357 53.0572C188.958 52.8724 188.588 52.6462 188.242 52.3849C187.834 52.0567 187.473 51.6807 187.158 51.2538C186.844 50.8268 186.571 50.3839 186.335 49.9251C185.883 49.0075 185.559 48.0452 185.368 47.0416C185.173 46.0379 185.098 45.0215 185.142 43.9955C185.186 43.1862 185.299 42.3738 185.481 41.5549C185.663 40.736 185.949 39.965 186.335 39.2449C186.508 38.8944 186.706 38.563 186.932 38.2444C187.158 37.929 187.422 37.639 187.724 37.3745C188.327 36.7851 189.034 36.3103 189.841 35.9503C190.648 35.5903 191.478 35.3704 192.329 35.2939C193.18 35.2175 194.013 35.2876 194.833 35.5074C195.649 35.7273 196.384 36.1096 197.028 36.6545C197.675 37.2439 198.181 37.964 198.546 38.8179C198.891 39.6495 199.067 40.5066 199.08 41.3892C199.089 42.275 198.945 43.1002 198.643 43.8617C198.341 44.6264 197.898 45.3019 197.317 45.8945C196.736 46.484 196.014 46.8982 195.153 47.1404C194.594 47.3156 193.984 47.3602 193.328 47.271C192.671 47.185 192.093 46.9651 191.6 46.6146C191.666 47.0511 191.757 47.494 191.873 47.9433C191.993 48.3925 192.191 48.8004 192.47 49.1732C192.901 49.7626 193.476 50.1545 194.198 50.3521C194.921 50.5496 195.615 50.4955 196.281 50.1896C196.711 50.0143 197.116 49.769 197.493 49.4536C197.87 49.1381 198.272 48.9023 198.706 48.7494C199.073 48.6188 199.394 48.6793 199.673 48.931C199.953 49.1827 200.05 49.495 199.965 49.8646C199.877 50.2374 199.724 50.5815 199.497 50.8969C199.271 51.2124 199.007 51.4928 198.706 51.7317C198.231 52.1236 197.71 52.4423 197.138 52.6812C196.567 52.9202 195.992 53.1273 195.411 53.3025L195.414 53.3057ZM191.537 44.3938C191.968 44.6551 192.426 44.808 192.91 44.8526C193.394 44.8973 193.852 44.8431 194.283 44.6901C194.713 44.5372 195.103 44.2982 195.445 43.9701C195.791 43.6419 196.048 43.2372 196.221 42.7593C196.501 41.9086 196.469 41.0674 196.124 40.2358C196.017 39.9745 195.866 39.7228 195.671 39.4807C195.477 39.2417 195.25 39.0346 194.993 38.8593C194.735 38.6841 194.465 38.5535 194.185 38.4674C193.906 38.3814 193.636 38.3687 193.378 38.4356C193.139 38.4802 192.92 38.5949 192.715 38.7797C192.511 38.9645 192.345 39.178 192.216 39.4201C192.021 39.7483 191.877 40.0988 191.779 40.4684C191.682 40.8412 191.613 41.2108 191.569 41.5836C191.44 42.5012 191.427 43.4411 191.537 44.4002V44.3938Z" fill="#35281C"/>
<path d="M6.55905 55.5234C6.5936 55.877 6.76323 56.2594 7.03339 56.4888C7.67421 57.0368 8.6166 56.7628 9.38622 56.852C12.2856 56.6895 15.4269 57.0559 18.3201 56.852C19.0426 56.801 19.6268 56.4059 19.7462 55.6476C19.9221 54.5388 19.8907 53.1305 19.9567 51.9803C20.3525 45.2605 20.6949 38.5598 21.0498 31.8305C20.2582 31.8305 19.4635 31.8305 18.6719 31.8305C18.2949 34.4591 17.7766 37.075 16.9567 39.6113C15.7411 43.3806 13.7463 47.5227 10.2878 49.8327C9.12549 50.6102 7.77787 51.1964 6.36743 51.3908C6.38314 51.6744 6.40199 51.9611 6.41769 52.2479C6.48052 53.3185 6.45853 54.4655 6.56219 55.5234H6.55905Z" fill="#B97632"/>
<path d="M35.2799 47.4016C35.2077 46.8918 35.1731 46.2864 34.4977 46.1367C33.8255 45.9869 32.4402 46.621 31.9816 46.8121C31.5229 47.0033 30.458 47.5322 29.7984 47.7616C29.1355 47.9942 28.4979 48.2109 27.879 48.4116C27.2602 48.6156 26.8204 48.7558 26.5628 48.8386C25.5796 49.1604 24.3671 49.5619 23.1388 49.7371C23.4561 44.1007 23.8268 38.461 24.0906 32.8182C24.1032 32.5474 24.0435 32.1427 24.0906 31.9006C24.1 31.8432 24.1063 31.8082 24.1692 31.7859C24.3482 31.7253 24.8194 31.8018 25.0613 31.7731C25.2372 31.7508 25.3974 31.6775 25.5482 31.5947C26.522 31.053 26.2487 29.992 26.2738 29.0553C26.3021 28.0675 26.3681 27.0607 26.3241 26.0666C26.2927 25.372 26.299 24.8208 25.7272 24.3587C25.2121 23.9414 24.7189 24.0242 24.0969 24.0146C23.5063 19.9554 20.7734 16.4792 16.9756 15.0677C15.8699 14.6567 14.7484 14.4368 13.6395 14.389C13.2751 11.3621 12.9202 8.4913 12.7662 6.95872C12.7034 6.19721 12.6092 5.42932 12.4773 4.65507C12.3453 3.88081 12.1191 3.13205 11.7956 2.40877C11.3966 1.46883 11.048 0.853888 10.2187 0.337718C9.63124 -0.0318851 9.24486 -0.0382575 8.61974 0.0445846C8.01661 0.124241 7.50458 0.586245 7.24071 0.939917C6.82606 1.50069 6.81035 2.20804 6.84491 2.95043C6.8826 3.69282 6.94543 4.39698 7.03967 5.06291C7.08993 5.41976 7.19045 6.13985 7.34123 7.22955C7.49202 8.31924 7.66479 9.47266 7.85641 10.6898C7.94436 11.2506 8.25849 13.2675 8.59147 15.3863C5.77059 16.6895 3.50257 19.1843 2.56332 22.4534C2.41568 22.9664 2.32144 23.4889 2.22406 24.0146C1.94135 24.0465 1.6335 23.9923 1.35392 24.021C0.747655 24.0847 0.100548 24.6678 0.0440044 25.2955C-0.103637 26.9778 0.157091 28.8896 0.050287 30.5942C0.119395 31.0976 0.716242 31.7094 1.20942 31.7795C1.50471 31.8209 1.87852 31.7476 2.18323 31.7795C2.19579 31.8528 2.22406 31.9197 2.23035 31.9962C2.38741 33.5861 2.42511 35.3481 2.5162 36.9635C2.85546 43.0333 3.0408 49.119 3.46802 55.1824C3.64707 57.7314 5.0261 59.7738 7.71819 59.9331C11.2898 60.1434 15.0594 59.7706 18.6499 59.9331C21.119 59.71 22.6456 57.9257 22.8529 55.4723C22.8875 55.0486 22.9158 54.6248 22.9378 54.1978C23.3901 54.1246 23.8959 54.0099 24.678 53.8346C26.39 53.4523 28.0801 52.9839 29.745 52.4263C30.4706 52.1841 31.1931 51.9133 31.9093 51.6043C32.6255 51.2984 33.2663 50.9224 33.8286 50.4795C34.3564 50.0876 34.7239 49.6033 34.9344 49.0298C35.1448 48.4562 35.349 47.9114 35.2768 47.3984L35.2799 47.4016ZM18.1693 47.2582C17.6133 46.159 17.0667 43.8744 16.7023 42.5203C16.3348 41.1693 16.2248 39.5157 16.052 38.1105C15.8793 36.7086 15.7473 35.5361 15.6625 34.5961C15.5557 33.6721 15.4583 32.7481 15.3641 31.8273C17.2583 31.8273 19.1556 31.8273 21.0498 31.8273C20.742 37.6772 20.4404 43.5048 20.1075 49.3388C19.319 48.9437 18.6719 48.2491 18.1693 47.2519V47.2582ZM23.2362 28.6984H15.0688C15.0248 28.1822 14.9777 27.6692 14.9369 27.1563H23.233V28.6984H23.2362ZM21.0027 24.021H14.7044C14.5976 22.5872 14.3243 20.1625 14.0165 17.537C17.318 17.913 20.252 20.3951 21.0027 24.021ZM9.10036 18.6203C9.28884 19.8279 9.43962 20.7806 9.49302 21.1056C9.66579 22.1921 9.77888 22.9122 9.82914 23.2659C9.85741 23.4634 9.88882 23.7183 9.92338 24.021H5.32766C5.78315 21.7428 7.13705 19.7961 9.1035 18.6203H9.10036ZM3.09106 28.6984V27.1563H10.2501C10.3003 27.6469 10.3569 28.1599 10.4134 28.6984H3.09106ZM18.3201 56.8488C15.4301 57.0527 12.2856 56.6863 9.38622 56.8488C8.6166 56.7596 7.67421 57.0336 7.03339 56.4856C6.76638 56.2562 6.5936 55.8738 6.55905 55.5201C6.45853 54.4623 6.47738 53.3153 6.41455 52.2447C6.1444 47.5386 5.86482 42.823 5.60724 38.1201C5.49415 36.0236 5.40934 33.9238 5.27426 31.8305C6.16011 31.8305 7.04909 31.8305 7.93494 31.8305C8.87419 31.8305 9.81343 31.8305 10.7527 31.8305C10.8406 32.6175 10.9286 33.4236 11.0197 34.2456C11.1987 35.8515 11.3809 37.3905 11.5631 38.8593C11.7453 40.3282 11.915 41.6313 12.0752 42.7624C12.2322 43.8967 12.3673 44.7029 12.4804 45.1872C12.7725 46.3247 13.1463 47.4717 13.5987 48.6315C14.051 49.7913 14.695 50.8077 15.5337 51.6839C16.2688 52.4837 17.1295 53.1082 18.1065 53.5574C18.7284 53.8442 19.231 54.064 19.8719 54.1915C19.8499 54.7013 19.8122 55.1983 19.7399 55.6444C19.6206 56.4027 19.0363 56.7978 18.3138 56.8488H18.3201Z" fill="#35281C"/>
</g>
<defs>
<clipPath id="clip0_3_2">
<rect width="200" height="60" fill="white"/>
</clipPath>
</defs>
</svg>
